<svg width="1024" height="1024" viewBox="0 0 1024 1024" fill="none" xmlns="http://www.w3.org/2000/svg">
<rect width="1024" height="1024" fill="#1E1E1E"/>
<g clip-path="url(#clip0_0_1)">
<rect width="1024" height="1024" transform="matrix(-1 0 0 1 1024 0)" fill="black"/>
<path d="M129.336 835.376H321.336V389.936H122.424V337.712H382.776V796.976C382.776 823.6 375.608 845.36 361.272 862.256C347.448 879.152 325.432 887.6 295.224 887.6H129.336V835.376ZM352.056 250.16C334.136 250.16 321.592 246.576 314.424 239.408C307.256 231.728 303.672 222.256 303.672 210.992V198.704C303.672 187.44 307.256 178.224 314.424 171.056C321.592 163.376 334.136 159.536 352.056 159.536C369.976 159.536 382.52 163.376 389.688 171.056C396.856 178.224 400.44 187.44 400.44 198.704V210.992C400.44 222.256 396.856 231.728 389.688 239.408C382.52 246.576 369.976 250.16 352.056 250.16ZM837.9 669.488H834.828C809.228 718.64 768.524 743.216 712.716 743.216C664.076 743.216 625.932 725.04 598.284 688.688C571.148 652.336 557.58 601.392 557.58 535.856C557.58 470.32 571.148 419.376 598.284 383.024C625.932 346.672 664.076 328.496 712.716 328.496C768.524 328.496 809.228 353.072 834.828 402.224H837.9V165.68H899.34V734H837.9V669.488ZM736.524 688.688C750.348 688.688 763.404 686.896 775.692 683.312C787.98 679.728 798.732 674.608 807.948 667.952C817.164 660.784 824.332 652.336 829.452 642.608C835.084 632.368 837.9 620.592 837.9 607.28V464.432C837.9 451.12 835.084 439.6 829.452 429.872C824.332 419.632 817.164 411.184 807.948 404.528C798.732 397.36 787.98 391.984 775.692 388.4C763.404 384.816 750.348 383.024 736.524 383.024C700.684 383.024 672.78 394.032 652.812 416.048C633.356 437.552 623.628 466.224 623.628 502.064V569.648C623.628 605.488 633.356 634.416 652.812 656.432C672.78 677.936 700.684 688.688 736.524 688.688Z" fill="white"/>
</g>
<defs>
<clipPath id="clip0_0_1">
<rect width="1024" height="1024" fill="white" transform="matrix(-1 0 0 1 1024 0)"/>
</clipPath>
</defs>
</svg>
